<?xml version="1.0" encoding="UTF-8"?>
<svg viewBox="0 0 640 480" xmlns="http://www.w3.org/2000/svg">
 <g fill="#003f7f">
  <path d="m129.1 254.68c-36.93-19.044-52.681-4.6369-72.984 2.296 19.025 5.3689 45.697 17.91 72.984-2.296z" filter="url(#filter6499)"/>
  <path d="m134.12 245.44c6.0187-31.066-20.38-33.052-39.444-41.429 2.6092 13.783-0.17642 35.614 39.444 41.429z" filter="url(#filter6503)"/>
  <path d="m145.69 268.86c-46.103 4.1245-42.118 21.815-49.196 36.388 19.089-5.2658 51.113-9.1021 49.196-36.388z" filter="url(#filter6507)"/>
  <path d="m191.55 203.09c4.9506-25.56-16.768-27.192-32.452-34.086 2.1458 11.34-0.1459 29.302 32.452 34.086z" filter="url(#filter6511)"/>
  <path d="m203.39 201.7c35.336-9.8914 26.576-23.378 27.595-35.975-13.505 6.9216-37.743 14.565-27.595 35.975z" filter="url(#filter6515)"/>
  <path d="m183.38 216.89c-23.329-20.432-40.402-11.241-58.727-8.6447 13.421 6.9967 30.654 20.79 58.727 8.6447z" filter="url(#filter6519)"/>
  <path d="m280.67 213.1c4.9506-25.56-16.768-27.193-32.452-34.086 2.1474 11.34-0.14589 29.301 32.452 34.086z" filter="url(#filter6523)"/>
  <path d="m292.51 211.71c35.336-9.8914 26.576-23.378 27.595-35.975-13.505 6.9227-37.743 14.565-27.595 35.975z" filter="url(#filter6527)"/>
  <path d="m272.5 226.9c-23.329-20.432-40.402-11.241-58.727-8.6436 13.421 6.9956 30.654 20.788 58.727 8.6436z" filter="url(#filter6531)"/>
  <path d="m382.13 220.41c23.258-20.468 5.6625-29.198-2.8049-40.45-6.5575 10.544-21.876 25.326 2.8049 40.45z" filter="url(#filter6535)"/>
  <path d="m393.41 223.19c37.943 3.3352 40.368-11.295 50.6-21.86-16.834 1.4462-43.497-0.098648-50.6 21.86z" filter="url(#filter6539)"/>
  <path d="m364.81 229.61c-5.0388-25.552-26.644-23.343-44.443-27.266 6.4308 10.579 11.117 28.328 44.443 27.266z" filter="url(#filter6543)"/>
  <path d="m486.5 251.62c37.943 3.3352 40.368-11.295 50.6-21.86-16.834 1.4451-43.497-0.098663-50.6 21.86z" filter="url(#filter6547)"/>
  <path d="m488.56 259.59c14.683 23.803 34.705 17.903 53.404 18.589-10.276-9.0976-21.623-25.425-53.404-18.589z" filter="url(#filter6551)"/>
  <path d="m466.01 246.12c30.33-15.715 16.688-27.216 12.831-39.561-10.384 9.0416-30.86 20.65-12.831 39.561z" filter="url(#filter6555)"/>
  <path d="m446.89 194.92c37.943 3.3352 40.368-11.295 50.6-21.861-16.834 1.4462-43.498-0.097519-50.6 21.861z" filter="url(#filter6559)"/>
  <path d="m448.95 202.89c14.683 23.803 34.705 17.903 53.404 18.589-10.276-9.0977-21.622-25.425-53.404-18.589z" filter="url(#filter6563)"/>
  <path d="m426.4 189.41c30.33-15.714 16.686-27.214 12.831-39.56-10.386 9.0416-30.86 20.65-12.831 39.56z" filter="url(#filter6567)"/>
  <path d="m333.12 173.06c35.334-9.8914 26.575-23.379 27.593-35.976-13.505 6.9227-37.743 14.566-27.593 35.976z" filter="url(#filter6571)"/>
  <path d="m340.82 179.27c30.384 15.668 43.343 3.8151 60.045-1.889-15.652-4.4182-37.597-14.736-60.045 1.889z" filter="url(#filter6575)"/>
  <path d="m311.29 175.19c14.603-23.825-5.7476-29.19-18.25-38.582-2.2837 11.328-11.399 28.278 18.25 38.582z" filter="url(#filter6579)"/>
  <path d="m242.34 164.16c35.336-9.8914 26.576-23.378 27.595-35.975-13.505 6.9227-37.743 14.565-27.595 35.975z" filter="url(#filter6583)"/>
  <path d="m250.05 170.37c30.385 15.667 43.343 3.814 60.047-1.8902-15.652-4.4171-37.597-14.736-60.047 1.8902z" filter="url(#filter6587)"/>
  <path d="m220.51 166.3c14.602-23.825-5.7493-29.19-18.252-38.582-2.282 11.328-11.397 28.277 18.252 38.582z" filter="url(#filter6591)"/>
  <path d="m371.71 136.56c37.943 3.3352 40.368-11.295 50.6-21.861-16.834 1.4462-43.498-0.097534-50.6 21.861z" filter="url(#filter6595)"/>
  <path d="m373.77 144.54c14.683 23.803 34.705 17.902 53.404 18.589-10.276-9.0976-21.623-25.425-53.404-18.589z" filter="url(#filter6599)"/>
  <path d="m351.22 131.06c30.33-15.714 16.686-27.214 12.831-39.56-10.386 9.0416-30.86 20.65-12.831 39.56z" filter="url(#filter6603)"/>
  <path d="m277.72 123.58c30.33-15.714 16.688-27.214 12.831-39.56-10.385 9.0416-30.86 20.65-12.831 39.56z" filter="url(#filter6607)"/>
  <path d="m287.55 128.24c35.368 9.8365 43.332-3.8722 57.274-12.294-16.816-1.5381-41.976-7.6784-57.274 12.294z" filter="url(#filter6611)"/>
  <path d="m257.45 129.45c4.9506-25.56-16.768-27.193-32.452-34.086 2.1474 11.34-0.14592 29.301 32.452 34.086z" filter="url(#filter6615)"/>
  <path d="m191.31 121.44c4.5962-23.723-15.562-25.239-30.12-31.637 1.9918 10.526-0.13632 27.196 30.12 31.637z" filter="url(#filter6619)"/>
  <path d="m202.3 120.15c32.797-9.1806 24.666-21.7 25.612-33.392-12.536 6.4261-35.033 13.52-25.612 33.392z" filter="url(#filter6623)"/>
  <path d="m183.73 134.25c-21.653-18.964-37.499-10.434-54.508-8.0236 12.457 6.4933 28.453 19.295 54.508 8.0236z" filter="url(#filter6627)"/>
  <path d="m130.25 175.92c4.5962-23.723-15.562-25.24-30.12-31.637 1.9918 10.525-0.13631 27.196 30.12 31.637z" filter="url(#filter6631)"/>
  <path d="m141.24 174.63c32.797-9.1817 24.666-21.7 25.612-33.392-12.536 6.425-35.033 13.52-25.612 33.392z" filter="url(#filter6635)"/>
  <path d="m122.66 188.73c-21.653-18.964-37.499-10.434-54.508-8.0225 12.457 6.4933 28.453 19.295 54.508 8.0225z" filter="url(#filter6639)"/>
  <path d="m51.3 252.48c-13.63-22.093-32.213-16.617-49.568-17.254 9.5371 8.444 20.069 23.599 49.568 17.254z" filter="url(#filter6643)"/>
  <path d="m59.857 247.66c21.589-18.998 5.2553-27.1-2.6044-37.544-6.086 9.786-20.303 23.508 2.6044 37.544z" filter="url(#filter6647)"/>
  <path d="m54.238 266.13c-32.828-9.1302-40.219 3.5942-53.161 11.412 15.609 1.4283 38.963 7.1268 53.161-11.412z" filter="url(#filter6651)"/>
  <path d="m91.046 300.98c-32.829-9.1313-40.22 3.5942-53.161 11.41 15.607 1.4282 38.962 7.1279 53.161-11.41z" filter="url(#filter6655)"/>
  <path d="m92.04 293.5c-4.6763-23.718-24.73-21.667-41.252-25.309 5.9689 9.8196 10.32 26.294 41.252 25.309z" filter="url(#filter6659)"/>
  <path d="m107.45 309.23c-32.797 9.1806-24.666 21.699-25.612 33.39 12.536-6.425 35.033-13.519 25.612-33.39z" filter="url(#filter6663)"/>
  <path d="m66.934 176.03c-4.2866-21.746-22.674-19.866-37.821-23.204 5.4718 9.0035 9.4602 24.108 37.821 23.204z" filter="url(#filter6667)"/>
  <path d="m76.21 173.13c25.813-13.375 14.202-23.162 10.921-33.668-8.8379 7.694-26.264 17.573-10.921 33.668z" filter="url(#filter6671)"/>
  <path d="m64.729 188.59c-25.858-13.335-36.886-3.2467-51.102 1.6076 13.32 3.759 31.997 12.54 51.102-1.6076z" filter="url(#filter6675)"/>
  <path d="m85.457 135.12c12.429-20.277-4.8913-24.842-15.532-32.836-1.9437 9.6402-9.7007 24.065 15.532 32.836z" filter="url(#filter6679)"/>
  <path d="m95.642 135.73c32.281-2.889 29.49-15.276 34.447-25.479-13.367 3.6862-35.79 6.3734-34.447 25.479z" filter="url(#filter6683)"/>
  <path d="m74.226 145.25c-12.496-20.257-29.535-15.236-45.45-15.82 8.7465 7.7422 18.402 21.638 45.45 15.82z" filter="url(#filter6687)"/>
  <path d="m163.51 85.473c4.2129-21.753-14.27-23.143-27.619-29.008 1.8266 9.6507-0.12349 24.937 27.619 29.008z" filter="url(#filter6691)"/>
  <path d="m173.58 84.29c30.072-8.4183 22.617-19.896 23.484-30.616-11.494 5.8913-32.122 12.396-23.484 30.616z" filter="url(#filter6695)"/>
  <path d="m156.55 97.219c-19.854-17.389-34.383-9.5674-49.979-7.3566 11.422 5.953 26.087 17.692 49.979 7.3566z" filter="url(#filter6699)"/>
  <path d="m293.85 82.277c25.811-13.374 14.201-23.161 10.92-33.667-8.8379 7.6944-26.264 17.574-10.92 33.667z" filter="url(#filter6703)"/>
  <path d="m302.22 86.239c30.1 8.3723 36.877-3.2949 48.744-10.462-14.311-1.3094-35.725-6.5352-48.744 10.462z" filter="url(#filter6707)"/>
  <path d="m276.61 87.269c4.2128-21.752-14.27-23.142-27.619-29.008 1.8266 9.6508-0.1235 24.937 27.619 29.008z" filter="url(#filter6711)"/>
  <path d="m390.44 88.942c32.282-2.8879 29.492-15.275 34.447-25.478-13.365 3.6867-35.788 6.3735-34.447 25.478z" filter="url(#filter6715)"/>
  <path d="m394.75 95.19c19.854 17.388 34.383 9.5663 49.979 7.3566-11.422-5.9541-26.087-17.693-49.979-7.3566z" filter="url(#filter6719)"/>
  <path d="m371.8 87.456c19.794-17.419 4.8191-24.848-2.3863-34.424-5.5825 8.9732-18.617 21.554 2.3863 34.424z" filter="url(#filter6723)"/>
  <path d="m459.49 145.79c32.282-2.8879 29.492-15.275 34.447-25.479-13.365 3.6873-35.79 6.3734-34.447 25.479z" filter="url(#filter6727)"/>
  <path d="m463.79 152.04c19.854 17.388 34.383 9.5663 49.979 7.3566-11.421-5.9541-26.087-17.693-49.979-7.3566z" filter="url(#filter6731)"/>
  <path d="m440.85 144.3c19.794-17.42 4.8191-24.849-2.3863-34.424-5.5824 8.9732-18.617 21.554 2.3863 34.424z" filter="url(#filter6735)"/>
  <path d="m526.87 158.81c25.858 13.334 36.886 3.2467 51.102-1.6076-13.32-3.7601-31.997-12.542-51.102 1.6076z" filter="url(#filter6739)"/>
  <path d="m523.35 165.28c-4.2129 21.752 14.271 23.143 27.619 29.008-1.8265-9.6503 0.12347-24.936-27.619-29.008z" filter="url(#filter6743)"/>
  <path d="m515.25 148.88c32.281-2.8879 29.49-15.275 34.447-25.479-13.367 3.6873-35.79 6.3745-34.447 25.479z" filter="url(#filter6747)"/>
  <path d="m552.64 225.17c32.29 2.8386 34.354-9.6133 43.062-18.604-14.327 1.2298-37.02-0.084076-43.062 18.604z" filter="url(#filter6751)"/>
  <path d="m554.4 231.95c12.496 20.258 29.535 15.236 45.45 15.82-8.7466-7.7422-18.402-21.637-45.45-15.82z" filter="url(#filter6755)"/>
  <path d="m535.2 220.48c25.813-13.374 14.202-23.161 10.921-33.668-8.8378 7.6952-26.264 17.574-10.921 33.668z" filter="url(#filter6759)"/>
  <path d="m584.83 154.48c25.858 13.334 36.888 3.2467 51.103-1.6076-13.32-3.7602-31.997-12.542-51.103 1.6076z" filter="url(#filter6763)"/>
  <path d="m581.31 160.95c-4.2146 21.752 14.27 23.143 27.617 29.008-1.8266-9.6503 0.12512-24.936-27.617-29.008z" filter="url(#filter6767)"/>
  <path d="m573.21 144.55c32.282-2.8879 29.49-15.275 34.447-25.479-13.365 3.6873-35.79 6.3734-34.447 25.479z" filter="url(#filter6771)"/>
  <path d="m542.74 113.94c25.813-13.375 14.202-23.162 10.921-33.668-8.838 7.694-26.264 17.574-10.921 33.668z" filter="url(#filter6775)"/>
  <path d="m551.11 117.9c30.1 8.3712 36.877-3.2949 48.742-10.463-14.31-1.3083-35.724-6.5348-48.742 10.463z" filter="url(#filter6779)"/>
  <path d="m525.5 118.93c4.2128-21.752-14.27-23.143-27.619-29.008 1.8266 9.6503-0.12354 24.936 27.619 29.008z" filter="url(#filter6783)"/>
  <path d="m481.37 81.206c25.813-13.374 14.202-23.161 10.921-33.667-8.8379 7.6944-26.264 17.574-10.921 33.667z" filter="url(#filter6787)"/>
  <path d="m489.73 85.168c30.1 8.3723 36.877-3.2949 48.742-10.463-14.311-1.3083-35.724-6.5344-48.742 10.463z" filter="url(#filter6791)"/>
  <path d="m464.12 86.198c4.213-21.752-14.271-23.142-27.619-29.008 1.8267 9.6507-0.12344 24.936 27.619 29.008z" filter="url(#filter6795)"/>
  <path d="m379.08 48.476c25.811-13.374 14.201-23.162 10.92-33.668-8.8379 7.6944-26.264 17.574-10.92 33.668z" filter="url(#filter6799)"/>
  <path d="m387.44 52.438c30.1 8.3716 36.877-3.2954 48.744-10.463-14.311-1.3089-35.725-6.5348-48.744 10.463z" filter="url(#filter6803)"/>
  <path d="m361.83 53.468c4.2129-21.752-14.27-23.142-27.619-29.008 1.8282 9.6507-0.12347 24.937 27.619 29.008z" filter="url(#filter6807)"/>
  <path d="m248.89 48.643c12.427-20.276-4.8929-24.842-15.532-32.835-1.9436 9.6405-9.7007 24.066 15.532 32.835z" filter="url(#filter6811)"/>
  <path d="m259.08 49.257c32.282-2.8883 29.492-15.275 34.447-25.479-13.365 3.6866-35.79 6.3734-34.447 25.479z" filter="url(#filter6815)"/>
  <path d="m237.66 58.776c-12.498-20.257-29.537-15.236-45.45-15.82 8.7449 7.7424 18.402 21.638 45.45 15.82z" filter="url(#filter6819)"/>
  <path d="m547.06 278.85c12.496 20.257 29.535 15.236 45.449 15.82-8.745-7.7422-18.402-21.638-45.449-15.82z" filter="url(#filter6823)"/>
  <path d="m539.21 283.27c-19.794 17.418-4.8191 24.848 2.3862 34.424 5.5825-8.9732 18.617-21.554-2.3862-34.424z" filter="url(#filter6827)"/>
  <path d="m544.36 266.33c30.101 8.3723 36.878-3.2949 48.744-10.463-14.311-1.3083-35.726-6.5348-48.744 10.463z" filter="url(#filter6831)"/>
  <path d="m253.28 469.64c84.965 12.126 63.864-4.3756 148.92 2.5628l-8.328-5.1267s-13.285-66.636-4.9554-121.32c8.328-54.688 91.612-82.887 91.612-82.887s-63.059 22.218-85.664 43.58c-22.606 21.362-28.554 6.8353-28.554 6.8353s-26.175-8.5449-3.5698-46.997c22.606-38.452 17.846-43.579 17.846-43.579s-2.3783 8.5449-13.086 23.071c-10.708 14.527-28.555 62.379-28.555 62.379-6.5142-37.402-31.652-61.912-51.161-94.849l28.555 80.323c-24.05-27.581-39.407-56.856-129.68-60.67 67.987 7.3768 105.05 17.379 117.79 75.196-59.182-5.7187-69.297-84.484-159.43-54.688 140.24-39.314 169.8 225.86 108.27 216.17z"/>
  <path d="m129.1 254.68c-36.93-19.044-52.681-4.6369-72.984 2.296 19.025 5.3689 45.697 17.91 72.984-2.296z"/>
  <path d="m134.12 245.44c6.0187-31.066-20.38-33.052-39.444-41.429 2.6092 13.783-0.17642 35.614 39.444 41.429z"/>
  <path d="m145.69 268.86c-46.103 4.1245-42.118 21.815-49.196 36.388 19.089-5.2658 51.113-9.1021 49.196-36.388z"/>
  <path d="m191.55 203.09c4.9506-25.56-16.768-27.192-32.452-34.086 2.1458 11.34-0.1459 29.302 32.452 34.086z"/>
  <path d="m203.39 201.7c35.336-9.8914 26.576-23.378 27.595-35.975-13.505 6.9216-37.743 14.565-27.595 35.975z"/>
  <path d="m183.38 216.89c-23.329-20.432-40.402-11.241-58.727-8.6447 13.421 6.9967 30.654 20.79 58.727 8.6447z"/>
  <path d="m280.67 213.1c4.9506-25.56-16.768-27.193-32.452-34.086 2.1474 11.34-0.14589 29.301 32.452 34.086z"/>
  <path d="m292.51 211.71c35.336-9.8914 26.576-23.378 27.595-35.975-13.505 6.9227-37.743 14.565-27.595 35.975z"/>
  <path d="m272.5 226.9c-23.329-20.432-40.402-11.241-58.727-8.6436 13.421 6.9956 30.654 20.788 58.727 8.6436z"/>
  <path d="m382.13 220.41c23.258-20.468 5.6625-29.198-2.8049-40.45-6.5575 10.544-21.876 25.326 2.8049 40.45z"/>
  <path d="m393.41 223.19c37.943 3.3352 40.368-11.295 50.6-21.86-16.834 1.4462-43.497-0.098648-50.6 21.86z"/>
  <path d="m364.81 229.61c-5.0388-25.552-26.644-23.343-44.443-27.266 6.4308 10.579 11.117 28.328 44.443 27.266z"/>
  <path d="m486.5 251.62c37.943 3.3352 40.368-11.295 50.6-21.86-16.834 1.4451-43.497-0.098663-50.6 21.86z"/>
  <path d="m488.56 259.59c14.683 23.803 34.705 17.903 53.404 18.589-10.276-9.0976-21.623-25.425-53.404-18.589z"/>
  <path d="m466.01 246.12c30.33-15.715 16.688-27.216 12.831-39.561-10.384 9.0416-30.86 20.65-12.831 39.561z"/>
  <path d="m446.89 194.92c37.943 3.3352 40.368-11.295 50.6-21.861-16.834 1.4462-43.498-0.097519-50.6 21.861z"/>
  <path d="m448.95 202.89c14.683 23.803 34.705 17.903 53.404 18.589-10.276-9.0977-21.622-25.425-53.404-18.589z"/>
  <path d="m426.4 189.41c30.33-15.714 16.686-27.214 12.831-39.56-10.386 9.0416-30.86 20.65-12.831 39.56z"/>
  <path d="m333.12 173.06c35.334-9.8914 26.575-23.379 27.593-35.976-13.505 6.9227-37.743 14.566-27.593 35.976z"/>
  <path d="m340.82 179.27c30.384 15.668 43.343 3.8151 60.045-1.889-15.652-4.4182-37.597-14.736-60.045 1.889z"/>
  <path d="m311.29 175.19c14.603-23.825-5.7476-29.19-18.25-38.582-2.2837 11.328-11.399 28.278 18.25 38.582z"/>
  <path d="m242.34 164.16c35.336-9.8914 26.576-23.378 27.595-35.975-13.505 6.9227-37.743 14.565-27.595 35.975z"/>
  <path d="m250.05 170.37c30.385 15.667 43.343 3.814 60.047-1.8902-15.652-4.4171-37.597-14.736-60.047 1.8902z"/>
  <path d="m220.51 166.3c14.602-23.825-5.7493-29.19-18.252-38.582-2.282 11.328-11.397 28.277 18.252 38.582z"/>
  <path d="m371.71 136.56c37.943 3.3352 40.368-11.295 50.6-21.861-16.834 1.4462-43.498-0.097534-50.6 21.861z"/>
  <path d="m373.77 144.54c14.683 23.803 34.705 17.902 53.404 18.589-10.276-9.0976-21.623-25.425-53.404-18.589z"/>
  <path d="m351.22 131.06c30.33-15.714 16.686-27.214 12.831-39.56-10.386 9.0416-30.86 20.65-12.831 39.56z"/>
  <path d="m277.72 123.58c30.33-15.714 16.688-27.214 12.831-39.56-10.385 9.0416-30.86 20.65-12.831 39.56z"/>
  <path d="m287.55 128.24c35.368 9.8365 43.332-3.8722 57.274-12.294-16.816-1.5381-41.976-7.6784-57.274 12.294z"/>
  <path d="m257.45 129.45c4.9506-25.56-16.768-27.193-32.452-34.086 2.1474 11.34-0.14592 29.301 32.452 34.086z"/>
  <path d="m191.31 121.44c4.5962-23.723-15.562-25.239-30.12-31.637 1.9918 10.526-0.13632 27.196 30.12 31.637z"/>
  <path d="m202.3 120.15c32.797-9.1806 24.666-21.7 25.612-33.392-12.536 6.4261-35.033 13.52-25.612 33.392z"/>
  <path d="m183.73 134.25c-21.653-18.964-37.499-10.434-54.508-8.0236 12.457 6.4933 28.453 19.295 54.508 8.0236z"/>
  <path d="m130.25 175.92c4.5962-23.723-15.562-25.24-30.12-31.637 1.9918 10.525-0.13631 27.196 30.12 31.637z"/>
  <path d="m141.24 174.63c32.797-9.1817 24.666-21.7 25.612-33.392-12.536 6.425-35.033 13.52-25.612 33.392z"/>
  <path d="m122.66 188.73c-21.653-18.964-37.499-10.434-54.508-8.0225 12.457 6.4933 28.453 19.295 54.508 8.0225z"/>
  <path d="m51.3 252.48c-13.63-22.093-32.213-16.617-49.568-17.254 9.5371 8.444 20.069 23.599 49.568 17.254z"/>
  <path d="m59.857 247.66c21.589-18.998 5.2553-27.1-2.6044-37.544-6.086 9.786-20.303 23.508 2.6044 37.544z"/>
  <path d="m54.238 266.13c-32.828-9.1302-40.219 3.5942-53.161 11.412 15.609 1.4283 38.963 7.1268 53.161-11.412z"/>
  <path d="m91.046 300.98c-32.829-9.1313-40.22 3.5942-53.161 11.41 15.607 1.4282 38.962 7.1279 53.161-11.41z"/>
  <path d="m92.04 293.5c-4.6763-23.718-24.73-21.667-41.252-25.309 5.9689 9.8196 10.32 26.294 41.252 25.309z"/>
  <path d="m107.45 309.23c-32.797 9.1806-24.666 21.699-25.612 33.39 12.536-6.425 35.033-13.519 25.612-33.39z"/>
  <path d="m66.934 176.03c-4.2866-21.746-22.674-19.866-37.821-23.204 5.4718 9.0035 9.4602 24.108 37.821 23.204z"/>
  <path d="m76.21 173.13c25.813-13.375 14.202-23.162 10.921-33.668-8.8379 7.694-26.264 17.573-10.921 33.668z"/>
  <path d="m64.729 188.59c-25.858-13.335-36.886-3.2467-51.102 1.6076 13.32 3.759 31.997 12.54 51.102-1.6076z"/>
  <path d="m85.457 135.12c12.429-20.277-4.8913-24.842-15.532-32.836-1.9437 9.6402-9.7007 24.065 15.532 32.836z"/>
  <path d="m95.642 135.73c32.281-2.889 29.49-15.276 34.447-25.479-13.367 3.6862-35.79 6.3734-34.447 25.479z"/>
  <path d="m74.226 145.25c-12.496-20.257-29.535-15.236-45.45-15.82 8.7465 7.7422 18.402 21.638 45.45 15.82z"/>
  <path d="m163.51 85.473c4.2129-21.753-14.27-23.143-27.619-29.008 1.8266 9.6507-0.12349 24.937 27.619 29.008z"/>
  <path d="m173.58 84.29c30.072-8.4183 22.617-19.896 23.484-30.616-11.494 5.8913-32.122 12.396-23.484 30.616z"/>
  <path d="m156.55 97.219c-19.854-17.389-34.383-9.5674-49.979-7.3566 11.422 5.953 26.087 17.692 49.979 7.3566z"/>
  <path d="m293.85 82.277c25.811-13.374 14.201-23.161 10.92-33.667-8.8379 7.6944-26.264 17.574-10.92 33.667z"/>
  <path d="m302.22 86.239c30.1 8.3723 36.877-3.2949 48.744-10.462-14.311-1.3094-35.725-6.5352-48.744 10.462z"/>
  <path d="m276.61 87.269c4.2128-21.752-14.27-23.142-27.619-29.008 1.8266 9.6508-0.1235 24.937 27.619 29.008z"/>
  <path d="m390.44 88.942c32.282-2.8879 29.492-15.275 34.447-25.478-13.365 3.6867-35.788 6.3735-34.447 25.478z"/>
  <path d="m394.75 95.19c19.854 17.388 34.383 9.5663 49.979 7.3566-11.422-5.9541-26.087-17.693-49.979-7.3566z"/>
  <path d="m371.8 87.456c19.794-17.419 4.8191-24.848-2.3863-34.424-5.5825 8.9732-18.617 21.554 2.3863 34.424z"/>
  <path d="m459.49 145.79c32.282-2.8879 29.492-15.275 34.447-25.479-13.365 3.6873-35.79 6.3734-34.447 25.479z"/>
  <path d="m463.79 152.04c19.854 17.388 34.383 9.5663 49.979 7.3566-11.421-5.9541-26.087-17.693-49.979-7.3566z"/>
  <path d="m440.85 144.3c19.794-17.42 4.8191-24.849-2.3863-34.424-5.5824 8.9732-18.617 21.554 2.3863 34.424z"/>
  <path d="m526.87 158.81c25.858 13.334 36.886 3.2467 51.102-1.6076-13.32-3.7601-31.997-12.542-51.102 1.6076z"/>
  <path d="m523.35 165.28c-4.2129 21.752 14.271 23.143 27.619 29.008-1.8265-9.6503 0.12347-24.936-27.619-29.008z"/>
  <path d="m515.25 148.88c32.281-2.8879 29.49-15.275 34.447-25.479-13.367 3.6873-35.79 6.3745-34.447 25.479z"/>
  <path d="m552.64 225.17c32.29 2.8386 34.354-9.6133 43.062-18.604-14.327 1.2298-37.02-0.084076-43.062 18.604z"/>
  <path d="m554.4 231.95c12.496 20.258 29.535 15.236 45.45 15.82-8.7466-7.7422-18.402-21.637-45.45-15.82z"/>
  <path d="m535.2 220.48c25.813-13.374 14.202-23.161 10.921-33.668-8.8378 7.6952-26.264 17.574-10.921 33.668z"/>
  <path d="m584.83 154.48c25.858 13.334 36.888 3.2467 51.103-1.6076-13.32-3.7602-31.997-12.542-51.103 1.6076z"/>
  <path d="m581.31 160.95c-4.2146 21.752 14.27 23.143 27.617 29.008-1.8266-9.6503 0.12512-24.936-27.617-29.008z"/>
  <path d="m573.21 144.55c32.282-2.8879 29.49-15.275 34.447-25.479-13.365 3.6873-35.79 6.3734-34.447 25.479z"/>
  <path d="m542.74 113.94c25.813-13.375 14.202-23.162 10.921-33.668-8.838 7.694-26.264 17.574-10.921 33.668z"/>
  <path d="m551.11 117.9c30.1 8.3712 36.877-3.2949 48.742-10.463-14.31-1.3083-35.724-6.5348-48.742 10.463z"/>
  <path d="m525.5 118.93c4.2128-21.752-14.27-23.143-27.619-29.008 1.8266 9.6503-0.12354 24.936 27.619 29.008z"/>
  <path d="m481.37 81.206c25.813-13.374 14.202-23.161 10.921-33.667-8.8379 7.6944-26.264 17.574-10.921 33.667z"/>
  <path d="m489.73 85.168c30.1 8.3723 36.877-3.2949 48.742-10.463-14.311-1.3083-35.724-6.5344-48.742 10.463z"/>
  <path d="m464.12 86.198c4.213-21.752-14.271-23.142-27.619-29.008 1.8267 9.6507-0.12344 24.936 27.619 29.008z"/>
  <path d="m379.08 48.476c25.811-13.374 14.201-23.162 10.92-33.668-8.8379 7.6944-26.264 17.574-10.92 33.668z"/>
  <path d="m387.44 52.438c30.1 8.3716 36.877-3.2954 48.744-10.463-14.311-1.3089-35.725-6.5348-48.744 10.463z"/>
  <path d="m361.83 53.468c4.2129-21.752-14.27-23.142-27.619-29.008 1.8282 9.6507-0.12347 24.937 27.619 29.008z"/>
  <path d="m248.89 48.643c12.427-20.276-4.8929-24.842-15.532-32.835-1.9436 9.6405-9.7007 24.066 15.532 32.835z"/>
  <path d="m259.08 49.257c32.282-2.8883 29.492-15.275 34.447-25.479-13.365 3.6866-35.79 6.3734-34.447 25.479z"/>
  <path d="m237.66 58.776c-12.498-20.257-29.537-15.236-45.45-15.82 8.7449 7.7424 18.402 21.638 45.45 15.82z"/>
  <path d="m547.06 278.85c12.496 20.257 29.535 15.236 45.449 15.82-8.745-7.7422-18.402-21.638-45.449-15.82z"/>
  <path d="m539.21 283.27c-19.794 17.418-4.8191 24.848 2.3862 34.424 5.5825-8.9732 18.617-21.554-2.3862-34.424z"/>
  <path d="m544.36 266.33c30.101 8.3723 36.878-3.2949 48.744-10.463-14.311-1.3083-35.726-6.5348-48.744 10.463z"/>
  <path d="m253.28 469.64c84.965 12.126 63.864-4.3756 148.92 2.5628l-8.328-5.1267s-13.285-66.636-4.9554-121.32c8.328-54.688 91.612-82.887 91.612-82.887s-63.059 22.218-85.664 43.58c-22.606 21.362-28.554 6.8353-28.554 6.8353s-26.175-8.5449-3.5698-46.997c22.606-38.452 17.846-43.579 17.846-43.579s-2.3783 8.5449-13.086 23.071c-10.708 14.527-28.555 62.379-28.555 62.379-6.5142-37.402-31.652-61.912-51.161-94.849l28.555 80.323c-24.05-27.581-39.407-56.856-129.68-60.67 67.987 7.3768 105.05 17.379 117.79 75.196-59.182-5.7187-69.297-84.484-159.43-54.688 140.24-39.314 169.8 225.86 108.27 216.17z"/>
 </g>
</svg>
